<svg width="12" height="11" viewBox="0 0 12 11" fill="none" xmlns="http://www.w3.org/2000/svg">
<path d="M9.48622 8.98117H2.1751L0.487915 10.5661V1.58491C0.487915 0.713211 1.24715 0 2.1751 0H9.48622C10.4142 0 11.1734 0.713211 11.1734 1.58491V7.39626C11.1734 8.26796 10.4142 8.98117 9.48622 8.98117Z" fill="white"/>
<path d="M5.26843 3.69806H6.39322V6.60373H5.26843V3.69806Z" fill="#6B2B58"/>
<path d="M5.83083 2.90567C6.14143 2.90567 6.39322 2.66914 6.39322 2.37736C6.39322 2.08559 6.14143 1.84906 5.83083 1.84906C5.52022 1.84906 5.26843 2.08559 5.26843 2.37736C5.26843 2.66914 5.52022 2.90567 5.83083 2.90567Z" fill="#6B2B58"/>
</svg>
