<svg width="125" height="25" viewBox="0 0 125 25" fill="none" xmlns="http://www.w3.org/2000/svg">
<g id="&#208;&#161;&#208;&#181;&#209;&#128;&#208;&#178;&#208;&#184;&#209;&#129; &#208;&#184;&#208;&#186;&#208;&#190;&#208;&#189;&#208;&#186;&#208;&#184;">
<path id="&#208;&#148;&#208;&#190;&#208;&#188;&#208;&#190;&#208;&#185;" d="M74.4826 12.2952L63.1237 0.273787C63.042 0.186997 62.9448 0.118142 62.8379 0.0711618C62.7309 0.024182 62.6163 0 62.5005 0C62.3847 0 62.2701 0.024182 62.1632 0.0711618C62.0562 0.118142 61.9591 0.186997 61.8773 0.273787L50.5184 12.2952C50.1875 12.6457 50 13.1217 50 13.6182C50 14.6492 50.7915 15.4874 51.7649 15.4874H52.9617V24.0654C52.9617 24.5823 53.3561 25 53.8442 25H60.7356V18.4577H63.8242V25H71.1568C71.645 25 72.0393 24.5823 72.0393 24.0654V15.4874H73.2361C73.7049 15.4874 74.1544 15.2918 74.4853 14.9384C75.172 14.2082 75.172 13.0253 74.4826 12.2952V12.2952Z" fill="#29CB97"/>
<path id="&#208;&#157;&#208;&#176;&#209;&#129;&#209;&#130;&#209;&#128;&#208;&#190;&#208;&#185;&#208;&#186;&#208;&#184;" d="M112.505 9.09624C111.623 9.09624 110.797 9.42036 110.171 10.0127C109.549 10.6051 109.204 11.3874 109.204 12.2229C109.204 13.0583 109.549 13.8406 110.171 14.433C110.797 15.0226 111.623 15.3495 112.505 15.3495C113.387 15.3495 114.213 15.0226 114.838 14.433C115.461 13.8406 115.806 13.0583 115.806 12.2229C115.806 11.3874 115.461 10.6051 114.838 10.0127C114.533 9.72116 114.169 9.49001 113.769 9.33268C113.368 9.17535 112.938 9.09498 112.505 9.09624V9.09624ZM124.668 15.6764L122.738 14.1145C122.83 13.5836 122.877 13.0415 122.877 12.5023C122.877 11.963 122.83 11.4181 122.738 10.8901L124.668 9.32815C124.813 9.20998 124.918 9.05258 124.967 8.8769C125.016 8.70121 125.007 8.51556 124.942 8.34462L124.915 8.27198C124.384 6.86567 123.589 5.56212 122.567 4.42448L122.514 4.3658C122.39 4.22764 122.225 4.12832 122.04 4.08094C121.855 4.03355 121.659 4.04033 121.479 4.10036L119.083 4.90786C118.198 4.22051 117.213 3.67845 116.145 3.30125L115.682 0.929043C115.647 0.750338 115.555 0.585933 115.42 0.45767C115.284 0.329407 115.11 0.243358 114.921 0.210956L114.841 0.196985C113.307 -0.0656617 111.691 -0.0656617 110.157 0.196985L110.077 0.210956C109.888 0.243358 109.714 0.329407 109.578 0.45767C109.442 0.585933 109.351 0.750338 109.316 0.929043L108.85 3.31242C107.792 3.69263 106.807 4.23338 105.932 4.91345L103.519 4.10036C103.338 4.03985 103.143 4.03283 102.958 4.08024C102.773 4.12766 102.607 4.22726 102.484 4.3658L102.431 4.42448C101.411 5.56333 100.615 6.86656 100.082 8.27198L100.056 8.34462C99.923 8.69389 100.032 9.08506 100.33 9.32815L102.283 10.9068C102.192 11.4321 102.147 11.9686 102.147 12.4995C102.147 13.0359 102.192 13.5724 102.283 14.0921L100.336 15.6708C100.19 15.789 100.086 15.9464 100.037 16.122C99.988 16.2977 99.9966 16.4834 100.062 16.6543L100.088 16.727C100.622 18.1324 101.41 19.4317 102.436 20.5745L102.49 20.6331C102.614 20.7713 102.779 20.8706 102.964 20.918C103.149 20.9654 103.344 20.9586 103.525 20.8986L105.938 20.0855C106.817 20.77 107.797 21.3121 108.856 21.6865L109.322 24.0699C109.357 24.2486 109.448 24.413 109.584 24.5413C109.72 24.6695 109.894 24.7556 110.083 24.788L110.162 24.802C111.712 25.066 113.298 25.066 114.847 24.802L114.927 24.788C115.116 24.7556 115.289 24.6695 115.425 24.5413C115.561 24.413 115.653 24.2486 115.688 24.0699L116.151 21.6977C117.219 21.3177 118.204 20.7784 119.089 20.0911L121.485 20.8986C121.665 20.9591 121.861 20.9661 122.046 20.9187C122.231 20.8713 122.396 20.7717 122.52 20.6331L122.573 20.5745C123.6 19.4261 124.387 18.1324 124.921 16.727L124.948 16.6543C125.075 16.3078 124.966 15.9195 124.668 15.6764ZM112.505 17.1349C109.64 17.1349 107.319 14.9359 107.319 12.2229C107.319 9.50977 109.64 7.3108 112.505 7.3108C115.369 7.3108 117.691 9.50977 117.691 12.2229C117.691 14.9359 115.369 17.1349 112.505 17.1349Z" fill="#29CB97"/>
<g id="&#208;&#155;&#209;&#131;&#208;&#191;&#208;&#176;">
<path id="Vector" d="M24.5853 22.5814L17.7638 15.7544L17.8985 15.5653C19.0946 13.8856 19.7268 11.9128 19.7268 9.86028C19.7271 4.42333 15.3024 0 9.86342 0C4.42439 0 0 4.42333 0 9.86028C0 15.2972 4.42467 19.7206 9.86342 19.7206C11.9153 19.7206 13.8884 19.0889 15.5697 17.8933L15.7617 17.7569L22.5848 24.5858C22.8521 24.8528 23.2073 25 23.5852 25C23.9628 25 24.3181 24.8528 24.5856 24.5856C25.1382 24.0331 25.1382 23.1342 24.5853 22.5814ZM15.5976 13.9253L14.9055 14.8975L13.9331 15.5892C12.7329 16.4425 11.3258 16.8936 9.8637 16.8936C5.98267 16.8936 2.82531 13.7386 2.82531 9.86028C2.82531 5.98195 5.98267 2.82694 9.8637 2.82694C13.7447 2.82694 16.9021 5.98195 16.9021 9.86028C16.9018 11.3208 16.451 12.7264 15.5976 13.9253Z" fill="#29CB97"/>
<path id="Vector_2" d="M10.6441 4.10303C7.25449 4.10303 4.49683 6.84386 4.49683 10.2127C4.49683 10.6055 4.81687 10.9239 5.2121 10.9239C5.60733 10.9239 5.92737 10.6055 5.92737 10.2127C5.92737 7.62803 8.04327 5.52525 10.6441 5.52525C11.0394 5.52525 11.3594 5.20692 11.3594 4.81414C11.3594 4.42136 11.0394 4.10303 10.6441 4.10303Z" fill="#29CB97"/>
</g>
</g>
</svg>
