<svg width="22" height="16" viewBox="0 0 22 16" fill="none" xmlns="http://www.w3.org/2000/svg">
<path d="M20.2871 0H1.71346C0.771017 0 0 0.762587 0 1.69499V14.305C0 15.2369 0.771285 16 1.71346 16H20.2865C21.2293 16 22 15.2369 22 14.305V1.69473C22.0005 0.762587 21.2293 0 20.2871 0ZM19.3656 12.5776C19.6041 12.7997 19.6156 13.1709 19.3918 13.4074C19.2749 13.5307 19.1169 13.5926 18.9586 13.5926C18.8129 13.5926 18.6672 13.5398 18.5524 13.4331L13.6776 8.90852L11.5671 10.9437C11.4523 11.0551 11.3026 11.1106 11.1532 11.1106C11.0075 11.1106 10.8613 11.0578 10.7467 10.9514L8.33846 8.71562L3.45589 13.4254C3.3408 13.5371 3.19138 13.5926 3.04141 13.5926C2.88715 13.5926 2.7329 13.5326 2.61647 13.4151C2.38763 13.1826 2.39246 12.8114 2.6272 12.5851L7.47194 7.91164L2.63578 3.42209C2.39675 3.2 2.38468 2.82905 2.60896 2.59264C2.8335 2.35569 3.20881 2.34454 3.44785 2.5661L11.1454 9.71091L18.5444 2.57406C18.7786 2.34746 19.1547 2.35277 19.3838 2.58415C19.6124 2.81605 19.6075 3.18779 19.3728 3.41439L14.5286 8.08783L19.3656 12.5776Z" fill="#26334A"/>
</svg>
