<svg width="35" height="35" viewBox="0 0 35 35" fill="none" xmlns="http://www.w3.org/2000/svg">
<g clip-path="url(#clip0_42_341)">
<path d="M30.5566 0V35H4.375V7.60418L11.9971 0L30.5566 0Z" fill="#DEE2F7"/>
<path d="M17.4667 0H30.5567V35H17.4667V0Z" fill="#C2C8F5"/>
<path d="M4.375 24.4871H30.5566V35H4.375V24.4871Z" fill="#FF623F"/>
<path d="M11.9971 0V7.60418H4.375L11.9971 0Z" fill="#959FEF"/>
<path d="M17.4667 24.4871H30.5567V35H17.4667V24.4871Z" fill="#E50021"/>
<path d="M14.3602 28.041C14.2555 27.7819 14.1113 27.5515 13.9274 27.3507C13.7442 27.1496 13.5241 26.987 13.2678 26.8612C13.0115 26.736 12.7319 26.6738 12.4291 26.6738H9.7561V32.8768H11.4597V30.9721H12.4729C12.7757 30.9721 13.0539 30.912 13.3076 30.7932C13.561 30.6736 13.7765 30.5136 13.9541 30.3126C14.1311 30.1115 14.27 29.8813 14.369 29.622C14.4676 29.363 14.5175 29.0965 14.5175 28.8231C14.5175 28.5606 14.4649 28.3 14.3602 28.041ZM12.6518 29.3425C12.5618 29.4389 12.4646 29.4869 12.3594 29.4869H11.4597V28.1587H12.3156C12.4208 28.1587 12.5255 28.2057 12.6301 28.2986C12.7353 28.3916 12.7871 28.5667 12.7871 28.8231C12.7871 29.0733 12.742 29.2461 12.6518 29.3425Z" fill="white"/>
<path d="M20.5104 28.5654C20.3764 28.1894 20.1783 27.8618 19.9166 27.5822C19.6546 27.3026 19.3278 27.0813 18.9382 26.9186C18.5478 26.7552 18.096 26.6738 17.5841 26.6738H15.199V32.8768H17.5841C18.0556 32.8768 18.4837 32.8023 18.8679 32.6539C19.2527 32.5057 19.5815 32.2958 19.8549 32.025C20.1291 31.7537 20.3403 31.4274 20.4885 31.0461C20.637 30.6645 20.7115 30.2381 20.7115 29.7665C20.7115 29.3411 20.6445 28.9406 20.5104 28.5654ZM18.8896 30.413C18.829 30.6106 18.7387 30.7828 18.6191 30.9286C18.4994 31.0741 18.3523 31.1876 18.1782 31.2691C18.003 31.351 17.8049 31.3914 17.5841 31.3914H16.9026V28.1587H17.5841C17.7993 28.1587 17.9942 28.1982 18.1691 28.2767C18.3435 28.3555 18.4912 28.4647 18.61 28.6044C18.7296 28.7443 18.8212 28.9133 18.8856 29.1109C18.9499 29.3091 18.9814 29.5278 18.9814 29.7665C18.9814 29.9996 18.9513 30.2148 18.8896 30.413Z" fill="white"/>
<path d="M25.7084 28.1587V26.6738H21.4539V32.8768H23.1575V30.5703H25.2369V29.1894H23.1575V28.1587H25.7084Z" fill="white"/>
<path d="M23.5135 11.1768L17.4667 19.6122L17.4659 19.613L11.4182 11.1768H23.5135Z" fill="#FF623F"/>
<path d="M23.5135 11.1768L17.4667 19.6122V11.1768H23.5135Z" fill="#E50021"/>
<path d="M20.7116 29.7665C20.7116 30.2381 20.6371 30.6645 20.4886 31.0461C20.3404 31.4274 20.1292 31.7537 19.855 32.025C19.5815 32.2958 19.2528 32.5057 18.868 32.6539C18.4838 32.8023 18.0557 32.8768 17.5842 32.8768H17.4667V31.3914H17.5842C17.805 31.3914 18.0031 31.351 18.1783 31.2691C18.3524 31.1876 18.4995 31.0741 18.6192 30.9286C18.7388 30.7828 18.8291 30.6106 18.8897 30.413C18.9514 30.2148 18.9815 29.9996 18.9815 29.7665C18.9815 29.5278 18.95 29.3091 18.8857 29.1109C18.8213 28.9133 18.7297 28.7443 18.6101 28.6044C18.4913 28.4647 18.3436 28.3555 18.1692 28.2767C17.9943 28.1982 17.7994 28.1587 17.5842 28.1587H17.4667V26.6738H17.5842C18.0961 26.6738 18.5479 26.7552 18.9383 26.9186C19.3279 27.0813 19.6547 27.3026 19.9167 27.5822C20.1784 27.8618 20.3765 28.1894 20.5105 28.5654C20.6446 28.9406 20.7116 29.3411 20.7116 29.7665Z" fill="#C2C8F5"/>
<path d="M23.1575 28.1587V29.1894H25.2369V30.5703H23.1575V32.8768H21.4539V26.6738H25.7084V28.1587H23.1575Z" fill="#C2C8F5"/>
</g>
<defs>
<clipPath id="clip0_42_341">
<rect width="35" height="35" fill="white"/>
</clipPath>
</defs>
</svg>
