<svg width="17" height="20" viewBox="0 0 17 20" fill="none" xmlns="http://www.w3.org/2000/svg">
<path d="M5.55469 15V13V15ZM8.55469 15V11V15ZM11.5547 15V9V15ZM13.5547 19H3.55469C3.02425 19 2.51555 18.7893 2.14047 18.4142C1.7654 18.0391 1.55469 17.5304 1.55469 17V3C1.55469 2.46957 1.7654 1.96086 2.14047 1.58579C2.51555 1.21071 3.02425 1 3.55469 1H9.14069C9.40588 1.00006 9.66019 1.10545 9.84769 1.293L15.2617 6.707C15.4492 6.89449 15.5546 7.1488 15.5547 7.414V17C15.5547 17.5304 15.344 18.0391 14.9689 18.4142C14.5938 18.7893 14.0851 19 13.5547 19Z" stroke="#C7C7C7" stroke-width="2" stroke-linecap="round" stroke-linejoin="round"/>
</svg>
